<svg width="350" height="97" viewBox="0 0 350 97" fill="none" xmlns="http://www.w3.org/2000/svg">
<path d="M36.78 96.3C29.0667 96.3 22.48 94.6967 17.02 91.49C11.56 88.2833 7.35667 84.0367 4.41 78.75C1.55 73.4633 0.12 67.7433 0.12 61.59C0.12 55.0033 1.55 48.98 4.41 43.52C7.27 38.06 11.43 33.6833 16.89 30.39C22.35 27.0967 28.98 25.45 36.78 25.45C44.4933 25.45 51.08 27.0967 56.54 30.39C62 33.6833 66.1167 38.0167 68.89 43.39C71.75 48.7633 73.18 54.5267 73.18 60.68C73.18 63.1933 73.0067 65.4033 72.66 67.31H22.22C22.5667 71.9033 24.2133 75.4133 27.16 77.84C30.1933 80.18 33.6167 81.35 37.43 81.35C40.4633 81.35 43.3667 80.6133 46.14 79.14C48.9133 77.6667 50.82 75.6733 51.86 73.16L69.54 78.1C66.8533 83.4733 62.65 87.85 56.93 91.23C51.2967 94.61 44.58 96.3 36.78 96.3ZM21.7 54.57H51.34C50.9067 50.2367 49.3033 46.8133 46.53 44.3C43.8433 41.7 40.5067 40.4 36.52 40.4C32.5333 40.4 29.1533 41.7 26.38 44.3C23.6933 46.9 22.1333 50.3233 21.7 54.57ZM145.397 95L127.587 67.7L120.307 75.11V95H99.507V0.0999975H120.307V54.96L143.447 26.75H165.417L140.847 56.13L167.497 95H145.397ZM298.321 95H277.521V56.65C277.521 52.23 276.697 48.98 275.051 46.9C273.404 44.82 271.281 43.78 268.681 43.78C265.907 43.78 263.177 44.9067 260.491 47.16C257.804 49.4133 255.897 52.3167 254.771 55.87V95H233.971V56.65C233.971 52.1433 233.147 48.8933 231.501 46.9C229.854 44.82 227.731 43.78 225.131 43.78C222.357 43.78 219.627 44.9067 216.941 47.16C214.341 49.4133 212.434 52.3167 211.221 55.87V95H190.421V26.75H209.141V38.19C211.654 34.1167 215.077 30.9967 219.411 28.83C223.744 26.5767 228.727 25.45 234.361 25.45C239.994 25.45 244.327 26.7933 247.361 29.48C250.394 32.08 252.344 35.1567 253.211 38.71C255.811 34.55 259.234 31.3 263.481 28.96C267.814 26.62 272.667 25.45 278.041 25.45C282.374 25.45 285.841 26.2733 288.441 27.92C291.127 29.48 293.164 31.56 294.551 34.16C296.024 36.76 297.021 39.5767 297.541 42.61C298.061 45.5567 298.321 48.46 298.321 51.32V95ZM328.815 18.95V0.0999975H349.615V18.95H328.815ZM328.815 95V26.75H349.615V95H328.815Z" fill="#5B5B5B"/>
</svg>
